<svg width="43" height="27" viewBox="0 0 43 27" fill="none" xmlns="http://www.w3.org/2000/svg">
<path d="M30.792 23.1429V26.9036C37.1662 26.9036 42.3636 21.6964 42.3636 15.3322H38.6372C38.6372 19.6714 35.1068 23.1429 30.792 23.1429Z" fill="white"/>
<path d="M30.7923 23.1429V26.9036C24.4181 26.9036 19.2207 21.6964 19.2207 15.3322H22.9472C23.0452 19.6714 26.5755 23.1429 30.7923 23.1429Z" fill="#5786FE"/>
<path d="M11.5716 26.9036V23.1429C7.25677 23.1429 3.82452 19.6714 3.82452 15.3322H0C0 21.7929 5.19742 26.9036 11.5716 26.9036Z" fill="white"/>
<path d="M24.5158 5.68929C24.81 5.11071 25.0061 4.43571 25.0061 3.76071C25.0061 1.63929 23.241 0 21.1816 0C19.1223 0 17.3571 1.73571 17.3571 3.76071C17.3571 4.43571 17.5532 5.11071 17.8474 5.68929C15.9842 4.53214 13.8268 3.76071 11.5713 3.76071V7.52143C15.8861 7.52143 19.3184 10.9929 19.3184 15.3321H23.0448C23.0448 10.9929 26.4771 7.52143 30.7919 7.52143V3.76071C28.5364 3.76071 26.379 4.53214 24.5158 5.68929ZM21.1816 2.025C22.1623 2.025 22.9468 2.79643 22.9468 3.76071C22.9468 4.725 22.1623 5.49643 21.1816 5.49643C20.201 5.49643 19.4164 4.725 19.4164 3.76071C19.4164 2.79643 20.201 2.025 21.1816 2.025Z" fill="white"/>
</svg>
