<svg width="20" height="20" viewBox="0 0 20 20" fill="none" xmlns="http://www.w3.org/2000/svg">
<path d="M9.99908 1.66357C13.374 1.66357 16.1296 4.32586 16.2456 7.70445L16.2491 7.91357V11.3277L17.3991 13.9577C17.4566 14.0893 17.4863 14.2314 17.4863 14.3751C17.4863 14.9504 17.02 15.4167 16.4447 15.4167L12.4991 15.418C12.4991 16.7987 11.3798 17.918 9.99908 17.918C8.66768 17.918 7.57936 16.8772 7.50332 15.5649L7.4987 15.4161L3.56146 15.4167C3.41868 15.4167 3.27742 15.3874 3.14646 15.3305C2.61879 15.1013 2.37684 14.4877 2.60603 13.9601L3.74908 11.3285V7.91348C3.74957 4.45116 6.54248 1.66357 9.99908 1.66357ZM11.2487 15.4161L8.74908 15.418C8.74908 16.1083 9.30872 16.668 9.99908 16.668C10.6488 16.668 11.1828 16.1722 11.2434 15.5384L11.2487 15.4161ZM9.99908 2.91357C7.23227 2.91357 4.99947 5.14212 4.99908 7.91357V11.5883L3.87909 14.1667H16.1262L14.9991 11.5891L14.9992 7.92429L14.996 7.73662C14.9035 5.04206 12.7004 2.91357 9.99908 2.91357Z" fill="#1D1D1D"/>
</svg>