<svg width="20" height="20" viewBox="0 0 20 20" fill="none" xmlns="http://www.w3.org/2000/svg">
<path d="M10.0106 1.875C10.6223 1.88205 11.2315 1.95272 11.8286 2.08587C12.0892 2.14399 12.2841 2.36126 12.3137 2.62664L12.4555 3.89901C12.5197 4.48322 13.013 4.9257 13.601 4.92632C13.7591 4.92656 13.9154 4.89365 14.0615 4.82903L15.2287 4.3163C15.4714 4.20966 15.755 4.2678 15.9363 4.46135C16.7797 5.3622 17.4079 6.44262 17.7736 7.62132C17.8524 7.87548 17.7617 8.15169 17.5475 8.30959L16.5129 9.07216C16.2178 9.28899 16.0435 9.63334 16.0435 9.99955C16.0435 10.3658 16.2178 10.7101 16.5135 10.9274L17.549 11.6902C17.7633 11.8481 17.8541 12.1244 17.7752 12.3786C17.4098 13.5571 16.7819 14.6374 15.9389 15.5384C15.7579 15.7319 15.4745 15.7902 15.2317 15.6839L14.0598 15.1704C13.7245 15.0237 13.3395 15.0452 13.0226 15.2283C12.7057 15.4114 12.4949 15.7343 12.4546 16.0981L12.3137 17.3703C12.2847 17.6327 12.0939 17.8485 11.8372 17.9096C10.6301 18.1968 9.37256 18.1968 8.16551 17.9096C7.90874 17.8485 7.71803 17.6327 7.68897 17.3703L7.54829 16.1C7.50697 15.7369 7.29577 15.415 6.97918 15.2325C6.66258 15.05 6.27816 15.0286 5.94399 15.1745L4.7718 15.688C4.52901 15.7944 4.24552 15.7361 4.06447 15.5424C3.22101 14.6404 2.59315 13.5588 2.22816 12.379C2.14954 12.1249 2.24037 11.8489 2.45453 11.6911L3.49064 10.9278C3.78575 10.7109 3.96005 10.3666 3.96005 10.0004C3.96005 9.63417 3.78575 9.28983 3.49025 9.07271L2.45479 8.31071C2.24032 8.15287 2.1494 7.87649 2.22829 7.62215C2.59392 6.44346 3.22211 5.36304 4.06559 4.46218C4.24681 4.26863 4.53044 4.21049 4.77319 4.31713L5.94017 4.82977C6.27596 4.97713 6.66199 4.95487 6.9803 4.76891C7.29723 4.58507 7.50823 4.26185 7.54896 3.89804L7.69069 2.62664C7.72029 2.36112 7.91537 2.14378 8.17616 2.08579C8.77389 1.95285 9.38378 1.88221 10.0106 1.875ZM10.0002 7.49996C8.61952 7.49996 7.50024 8.61925 7.50024 9.99996C7.50024 11.3807 8.61952 12.5 10.0002 12.5C11.3809 12.5 12.5002 11.3807 12.5002 9.99996C12.5002 8.61925 11.3809 7.49996 10.0002 7.49996Z" fill="white"/>
</svg>