<svg width="20" height="20" viewBox="0 0 20 20" fill="none" xmlns="http://www.w3.org/2000/svg">
<path d="M5.62435 18.3335C5.27917 18.3335 4.99935 18.0536 4.99935 17.7085C4.99935 17.392 5.23448 17.1305 5.53954 17.0892L5.62435 17.0835L7.08185 17.0831V15.0014L3.54102 15.0017C2.54863 15.0017 1.73631 14.2307 1.67034 13.255L1.66602 13.1267V4.37476C1.66602 3.38237 2.43698 2.57005 3.41264 2.50408L3.54102 2.49976H16.4567C17.4491 2.49976 18.2614 3.27072 18.3274 4.24638L18.3317 4.37476V13.1267C18.3317 14.119 17.5607 14.9314 16.5851 14.9973L16.4567 15.0017L12.9152 15.0014V17.0831L14.3743 17.0835C14.7195 17.0835 14.9993 17.3633 14.9993 17.7085C14.9993 18.0249 14.7642 18.2864 14.4592 18.3278L14.3743 18.3335H5.62435ZM11.6643 15.0014H8.33102L8.33185 17.0835H11.6652L11.6643 15.0014ZM16.4567 3.74976H3.54102C3.2246 3.74976 2.96311 3.98488 2.92172 4.28995L2.91602 4.37476V13.1267C2.91602 13.4431 3.15114 13.7046 3.45621 13.7459L3.54102 13.7517H16.4567C16.7731 13.7517 17.0346 13.5165 17.076 13.2115L17.0817 13.1267V4.37476C17.0817 4.05834 16.8466 3.79685 16.5415 3.75546L16.4567 3.74976Z" fill="#1D1D1D"/>
</svg>