<svg width="16" height="17" viewBox="0 0 16 17" fill="none" xmlns="http://www.w3.org/2000/svg">
<path d="M15.4994 7.87364L15.5 15.265C15.5 15.6365 15.4613 15.7712 15.3887 15.907C15.3161 16.0428 15.2095 16.1494 15.0737 16.222C14.9379 16.2946 14.8032 16.3333 14.4317 16.3333H10.735C10.3635 16.3333 10.2288 16.2946 10.093 16.222C9.95718 16.1494 9.8506 16.0428 9.77797 15.907C9.70534 15.7712 9.66667 15.6365 9.66667 15.265V11.5683C9.66667 11.1968 9.62799 11.0621 9.55536 10.9263C9.48273 10.7905 9.37615 10.6839 9.24035 10.6113C9.10455 10.5386 8.96985 10.5 8.59838 10.5H7.40162C7.03015 10.5 6.89545 10.5386 6.75965 10.6113C6.62384 10.6839 6.51727 10.7905 6.44464 10.9263C6.37201 11.0621 6.33333 11.1968 6.33333 11.5683V15.265C6.33333 15.6365 6.29466 15.7712 6.22203 15.907C6.1494 16.0428 6.04282 16.1494 5.90702 16.222C5.77122 16.2946 5.63651 16.3333 5.26505 16.3333H1.56829C1.19682 16.3333 1.06212 16.2946 0.926314 16.222C0.790512 16.1494 0.683933 16.0428 0.611305 15.907C0.538677 15.7712 0.5 15.6365 0.5 15.265V8.03876C0.5 7.34169 0.530216 7.09698 0.600861 6.8276C0.671506 6.55822 0.78258 6.32107 0.944298 6.09434L1.0274 5.98344C1.17242 5.80026 1.36391 5.61337 1.81017 5.24149L7.29789 0.668393C7.55417 0.454828 7.66603 0.399621 7.79948 0.3633C7.93293 0.326979 8.06706 0.326979 8.20052 0.3633C8.33397 0.399621 8.44583 0.454828 8.70211 0.668393L14.1898 5.24149C14.7253 5.68775 14.894 5.86762 15.0557 6.09434C15.2174 6.32107 15.3285 6.55822 15.3991 6.8276C15.4639 7.07453 15.4947 7.30073 15.4994 7.87364Z" fill="white"/>
</svg>