<svg width="36" height="36" viewBox="0 0 36 36" fill="none" xmlns="http://www.w3.org/2000/svg">
<path d="M29.5 0C33.0899 0 36 2.91015 36 6.5V29.5C36 33.0899 33.0899 36 29.5 36H6.5C2.91015 36 0 33.0899 0 29.5V6.5C0 2.91015 2.91015 0 6.5 0H29.5ZM30.6611 32.8028L19.0493 21.4296C18.5192 20.9105 17.7003 20.8633 17.1176 21.288L16.9504 21.4296L5.3369 32.8021C5.7008 32.9303 6.09226 33 6.5 33H29.5C29.907 33 30.2977 32.9305 30.6611 32.8028L19.0493 21.4296L30.6611 32.8028ZM29.5 3H6.5C4.567 3 3 4.567 3 6.5V29.5C3 29.9168 3.07286 30.3166 3.20653 30.6873L14.8516 19.286C16.5177 17.6546 19.1349 17.577 20.8915 19.0532L21.1484 19.2862L32.7927 30.6893C32.9269 30.318 33 29.9176 33 29.5V6.5C33 4.567 31.433 3 29.5 3ZM24.5042 7C26.9918 7 29.0085 9.01661 29.0085 11.5042C29.0085 13.9918 26.9918 16.0085 24.5042 16.0085C22.0166 16.0085 20 13.9918 20 11.5042C20 9.01661 22.0166 7 24.5042 7ZM24.5042 10C23.6735 10 23 10.6735 23 11.5042C23 12.335 23.6735 13.0085 24.5042 13.0085C25.335 13.0085 26.0085 12.335 26.0085 11.5042C26.0085 10.6735 25.335 10 24.5042 10Z" fill="#99A6B6"/>
</svg>