<svg width="15" height="13" viewBox="0 0 15 13" fill="none" xmlns="http://www.w3.org/2000/svg">
<path d="M2.71908 0.833252H12.2816C13.5091 0.833252 14.5123 1.79407 14.58 3.0047L14.5837 3.13534V9.8645C14.5837 11.0921 13.6228 12.0952 12.4122 12.1629L12.2816 12.1666H2.71908C1.49151 12.1666 0.48836 11.2058 0.420636 9.99513L0.416992 9.8645V3.13534C0.416992 1.90777 1.37781 0.904619 2.58844 0.836896L2.71908 0.833252H12.2816H2.71908ZM13.5212 4.63913L7.74775 7.67836C7.615 7.74824 7.46005 7.75822 7.32095 7.70831L7.2529 7.67836L1.47949 4.63983V9.8645C1.47949 10.5149 1.98036 11.0483 2.61741 11.1L2.71908 11.1041H12.2816C12.9319 11.1041 13.4653 10.6032 13.5171 9.96617L13.5212 9.8645V4.63913ZM12.2816 1.89575H2.71908C2.0687 1.89575 1.53531 2.39662 1.4836 3.03367L1.47949 3.13534V3.43921L7.50033 6.60791L13.5212 3.4385V3.13534C13.5212 2.48496 13.0203 1.95157 12.3832 1.89986L12.2816 1.89575Z" fill="#212121"/>
</svg>