<svg width="18" height="18" viewBox="0 0 18 18" fill="none" xmlns="http://www.w3.org/2000/svg">
<path d="M16.5253 1.47498C17.6899 2.63953 17.6899 4.52764 16.5253 5.69219L6.55171 15.6658C6.32098 15.8965 6.03403 16.0631 5.71923 16.1489L1.45615 17.3116C0.989593 17.4388 0.561484 17.0107 0.688728 16.5441L1.85139 12.2811C1.93724 11.9663 2.10376 11.6793 2.33449 11.4486L12.3081 1.47498C13.4727 0.310424 15.3608 0.310424 16.5253 1.47498ZM11.5002 4.05073L3.21838 12.3325C3.14147 12.4094 3.08596 12.505 3.05734 12.61L2.18247 15.8178L5.39033 14.943C5.49527 14.9143 5.59092 14.8588 5.66783 14.7819L13.9494 6.4999L11.5002 4.05073ZM13.192 2.35886L12.3835 3.16656L14.8327 5.61656L15.6414 4.80831C16.3178 4.13191 16.3178 3.03526 15.6414 2.35886C14.965 1.68246 13.8684 1.68246 13.192 2.35886Z" fill="#1D1D1D"/>
</svg>