<svg width="8" height="14" viewBox="0 0 8 14" fill="none" xmlns="http://www.w3.org/2000/svg">
<path d="M6.5 0.333252C7.32843 0.333252 8 1.00482 8 1.83325V12.1666C8 12.995 7.32843 13.6666 6.5 13.6666H1.5C0.671573 13.6666 0 12.995 0 12.1666V1.83325C0 1.00482 0.671573 0.333252 1.5 0.333252H6.5ZM6.5 1.33325H1.5C1.22386 1.33325 1 1.55711 1 1.83325V12.1666C1 12.4427 1.22386 12.6666 1.5 12.6666H6.5C6.77614 12.6666 7 12.4427 7 12.1666V1.83325C7 1.55711 6.77614 1.33325 6.5 1.33325ZM4.83258 10.6666C5.10872 10.6662 5.33292 10.8897 5.33333 11.1658C5.33375 11.442 5.11023 11.6662 4.83409 11.6666L3.16742 11.6691C2.89128 11.6695 2.66708 11.446 2.66667 11.1698C2.66625 10.8937 2.88977 10.6695 3.16591 10.6691L4.83258 10.6666Z" fill="#212121"/>
</svg>