<svg width="12" height="12" viewBox="0 0 12 12" fill="none" xmlns="http://www.w3.org/2000/svg">
<path d="M5.92225 0.00472927L6 0.000244141C6.34189 0.000244141 6.62367 0.257604 6.66218 0.589163L6.66667 0.666911V5.33358H11.3333C11.6752 5.33358 11.957 5.59094 11.9955 5.9225L12 6.00024C12 6.34213 11.7426 6.62392 11.4111 6.66243L11.3333 6.66691H6.66667V11.3336C6.66667 11.6755 6.40931 11.9572 6.07775 11.9958L6 12.0002C5.65811 12.0002 5.37633 11.7429 5.33782 11.4113L5.33333 11.3336V6.66691H0.666667C0.324776 6.66691 0.0429952 6.40955 0.00448513 6.07799L0 6.00024C0 5.65835 0.25736 5.37657 0.588919 5.33806L0.666667 5.33358H5.33333V0.666911C5.33333 0.32502 5.59069 0.0432393 5.92225 0.00472927L6 0.000244141L5.92225 0.00472927Z" fill="white"/>
</svg>