<svg width="14" height="18" viewBox="0 0 14 18" fill="none" xmlns="http://www.w3.org/2000/svg">
<path d="M11.7948 10.667C12.8298 10.667 13.6689 11.506 13.6689 12.541V13.0206C13.6689 13.7658 13.4025 14.4865 12.9179 15.0526C11.6101 16.5805 9.6208 17.3346 6.99965 17.3346C4.3781 17.3346 2.38976 16.5803 1.0845 15.0518C0.60137 14.486 0.335938 13.7664 0.335938 13.0224V12.541C0.335938 11.506 1.17498 10.667 2.21 10.667H11.7948ZM11.7948 11.917H2.21C1.86534 11.917 1.58594 12.1964 1.58594 12.541V13.0224C1.58594 13.4688 1.7452 13.9006 2.03508 14.24C3.0795 15.4631 4.71773 16.0846 6.99965 16.0846C9.28158 16.0846 10.9212 15.4631 11.9683 14.2398C12.2591 13.9001 12.4189 13.4677 12.4189 13.0206V12.541C12.4189 12.1964 12.1395 11.917 11.7948 11.917ZM6.99965 0.670898C9.30084 0.670898 11.1663 2.53638 11.1663 4.83757C11.1663 7.13875 9.30084 9.00423 6.99965 9.00423C4.69847 9.00423 2.83299 7.13875 2.83299 4.83757C2.83299 2.53638 4.69847 0.670898 6.99965 0.670898ZM6.99965 1.9209C5.38882 1.9209 4.08299 3.22673 4.08299 4.83757C4.08299 6.4484 5.38882 7.75423 6.99965 7.75423C8.61048 7.75423 9.91632 6.4484 9.91632 4.83757C9.91632 3.22673 8.61048 1.9209 6.99965 1.9209Z" fill="#1D1D1D"/>
</svg>