<svg width="14" height="10" viewBox="0 0 14 10" fill="none" xmlns="http://www.w3.org/2000/svg">
<path d="M10.2556 0.0066824L10.3333 0.00219727C10.6752 0.00219727 10.957 0.259557 10.9955 0.591117L11 0.668864L11 7.72472L12.5284 6.19554C12.7686 5.9551 13.1467 5.93644 13.4084 6.13966L13.4712 6.19509C13.7116 6.4353 13.7303 6.81345 13.5271 7.07507L13.4716 7.1379L10.8075 9.80457C10.5673 10.045 10.1891 10.0637 9.92749 9.86044L9.86466 9.80501L7.19548 7.13835C6.93501 6.87812 6.93481 6.45601 7.19504 6.19554C7.43525 5.9551 7.8134 5.93644 8.07502 6.13966L8.13785 6.19509L9.66666 7.72205L9.66667 0.668864C9.66667 0.326973 9.92403 0.0451925 10.2556 0.0066824Z" fill="#99A6B6"/>
<path d="M0.527044 2.86218L3.19089 0.195511C3.43107 -0.0449169 3.80917 -0.063624 4.07081 0.13954L4.13364 0.194954L6.8038 2.86162C7.06432 3.1218 7.0646 3.54391 6.80442 3.80443C6.56425 4.04491 6.18611 4.06364 5.92445 3.86046L5.86161 3.80505L4.3327 2.278L4.33271 9.33378C4.33271 9.67567 4.07535 9.95745 3.74379 9.99597L3.66604 10.0005C3.32415 10.0005 3.04237 9.74309 3.00386 9.41153L2.99937 9.33378L2.99936 2.27333L1.47035 3.80449C1.23016 4.04494 0.852012 4.06362 0.590377 3.86041L0.527543 3.80499C0.287093 3.56479 0.268407 3.18665 0.471618 2.92501L0.527044 2.86218Z" fill="#212121"/>
</svg>