<svg width="14" height="10" viewBox="0 0 14 10" fill="none" xmlns="http://www.w3.org/2000/svg">
<path d="M0.528021 2.86267L3.19187 0.196C3.43204 -0.0444286 3.81015 -0.0631357 4.07178 0.140029L4.13462 0.195442L6.80478 2.86211C7.0653 3.12229 7.06557 3.5444 6.80539 3.80492C6.56523 4.0454 6.18709 4.06413 5.92543 3.86095L5.86259 3.80553L4.33367 2.27849L4.33368 9.33427C4.33368 9.67616 4.07632 9.95794 3.74476 9.99645L3.66702 10.0009C3.32512 10.0009 3.04334 9.74358 3.00483 9.41202L3.00035 9.33427L3.00034 2.27382L1.47133 3.80498C1.23113 4.04543 0.852989 4.06411 0.591354 3.8609L0.528519 3.80548C0.28807 3.56528 0.269383 3.18714 0.472595 2.9255L0.528021 2.86267L3.19187 0.196L0.528021 2.86267ZM10.2559 0.00711784L10.3337 0.00263271C10.6756 0.00263271 10.9574 0.259993 10.9959 0.591552L11.0003 0.669299L11.0003 7.72515L12.5287 6.19597C12.7689 5.95554 13.1471 5.93687 13.4087 6.1401L13.4715 6.19553C13.712 6.43574 13.7306 6.81388 13.5274 7.07551L13.472 7.13834L10.8078 9.805C10.5676 10.0454 10.1895 10.0641 9.92784 9.86088L9.86501 9.80545L7.19583 7.13878C6.93536 6.87855 6.93516 6.45644 7.19539 6.19597C7.4356 5.95554 7.81374 5.93687 8.07537 6.1401L8.1382 6.19553L9.66701 7.72249L9.66702 0.669299C9.66702 0.327409 9.92438 0.0456279 10.2559 0.00711784L10.3337 0.00263271L10.2559 0.00711784Z" fill="#99A6B6"/>
</svg>