<svg width="14" height="10" viewBox="0 0 14 10" fill="none" xmlns="http://www.w3.org/2000/svg">
<path d="M3.58859 9.99551L3.66634 10C4.00823 10 4.29001 9.74264 4.32852 9.41108L4.33301 9.33333L4.333 2.27748L5.86138 3.80666C6.10159 4.0471 6.47974 4.06576 6.74136 3.86253L6.80419 3.8071C7.04463 3.56689 7.06329 3.18875 6.86006 2.92713L6.80463 2.8643L4.14048 0.197628C3.90027 -0.0428076 3.52212 -0.061471 3.2605 0.141756L3.19767 0.197185L0.528492 2.86385C0.26802 3.12408 0.267821 3.54619 0.528048 3.80666C0.768258 4.0471 1.1464 4.06576 1.40803 3.86253L1.47086 3.8071L2.99967 2.28014L2.99967 9.33333C2.99967 9.67522 3.25704 9.957 3.58859 9.99551Z" fill="#99A6B6"/>
<path d="M13.472 7.13831L10.8081 9.80498C10.568 10.0454 10.1899 10.0641 9.92822 9.86095L9.86538 9.80553L7.19522 7.13887C6.9347 6.87869 6.93443 6.45658 7.19461 6.19606C7.43477 5.95558 7.81291 5.93685 8.07457 6.14002L8.13741 6.19544L9.66633 7.72249L9.66632 0.666704C9.66632 0.324814 9.92368 0.0430336 10.2552 0.00452328L10.333 3.71933e-05C10.6749 3.71933e-05 10.9567 0.257398 10.9952 0.588957L10.9997 0.666704L10.9997 7.72716L12.5287 6.196C12.7689 5.95555 13.147 5.93686 13.4086 6.14008L13.4715 6.1955C13.7119 6.4357 13.7306 6.81384 13.5274 7.07548L13.472 7.13831Z" fill="#212121"/>
</svg>