<svg width="16" height="18" viewBox="0 0 16 18" fill="none" xmlns="http://www.w3.org/2000/svg">
<path d="M7.99935 0.458496C9.44354 0.458496 10.6237 1.58888 10.7034 3.01314L10.7077 3.16683H15.0827C15.4279 3.16683 15.7077 3.44665 15.7077 3.79183C15.7077 4.10824 15.4726 4.36974 15.1675 4.41112L15.0827 4.41683H14.4194L13.3526 15.2662C13.242 16.3904 12.3314 17.2585 11.2182 17.3289L11.0719 17.3335H4.92679C3.79713 17.3335 2.84406 16.5122 2.66504 15.4113L2.64613 15.2662L1.57852 4.41683H0.916016C0.599602 4.41683 0.338107 4.1817 0.296721 3.87664L0.291016 3.79183C0.291016 3.47542 0.526144 3.21392 0.831207 3.17253L0.916016 3.16683H5.29102C5.29102 1.67106 6.50358 0.458496 7.99935 0.458496ZM13.1635 4.41683H2.83435L3.89013 15.1438C3.93908 15.6415 4.33296 16.0287 4.82089 16.0782L4.92679 16.0835H11.0719C11.572 16.0835 11.9959 15.7294 12.0929 15.2487L12.1086 15.1438L13.1635 4.41683ZM9.45768 6.7085C9.7741 6.7085 10.0356 6.94362 10.077 7.24869L10.0827 7.3335V13.1668C10.0827 13.512 9.80286 13.7918 9.45768 13.7918C9.14127 13.7918 8.87977 13.5567 8.83839 13.2516L8.83268 13.1668V7.3335C8.83268 6.98832 9.1125 6.7085 9.45768 6.7085ZM6.54102 6.7085C6.85743 6.7085 7.11893 6.94362 7.16031 7.24869L7.16602 7.3335V13.1668C7.16602 13.512 6.88619 13.7918 6.54102 13.7918C6.2246 13.7918 5.96311 13.5567 5.92172 13.2516L5.91602 13.1668V7.3335C5.91602 6.98832 6.19584 6.7085 6.54102 6.7085ZM7.99935 1.7085C7.2342 1.7085 6.60669 2.29775 6.54585 3.04722L6.54102 3.16683H9.45768C9.45768 2.36141 8.80476 1.7085 7.99935 1.7085Z" fill="#1D1D1D"/>
</svg>