<svg width="18" height="16" viewBox="0 0 18 16" fill="none" xmlns="http://www.w3.org/2000/svg">
<path d="M11.292 10.5C12.0974 10.5 12.7503 11.1529 12.7503 11.9583L12.7494 12.7601C12.8466 14.5843 11.4903 15.5075 9.05598 15.5075C6.63188 15.5075 5.25033 14.5993 5.25033 12.7917V11.9583C5.25033 11.1529 5.90324 10.5 6.70866 10.5H11.292ZM2.12533 6.33333L5.77199 6.3334C5.70345 6.59973 5.66699 6.87894 5.66699 7.16667C5.66699 8.09628 6.04753 8.93701 6.66133 9.54158L6.79637 9.66746L6.70866 9.66667C6.45754 9.66667 6.21585 9.70706 5.98974 9.7817C5.26912 10.0196 4.7067 10.6053 4.50134 11.3401L4.47265 11.3409C2.04854 11.3409 0.666992 10.4327 0.666992 8.625V7.79167C0.666992 6.98625 1.31991 6.33333 2.12533 6.33333ZM15.8753 6.33333C16.6807 6.33333 17.3337 6.98625 17.3337 7.79167L17.3328 8.59339C17.43 10.4176 16.0736 11.3409 13.6393 11.3409L13.4991 11.3394C13.3 10.6278 12.766 10.0561 12.0777 9.80492C11.8817 9.73336 11.6731 9.68781 11.4562 9.67246L11.292 9.66667L11.2043 9.66746C11.8968 9.05666 12.3337 8.16268 12.3337 7.16667C12.3337 6.87894 12.2972 6.59973 12.2287 6.3334L15.8753 6.33333ZM9.00033 4.66667C10.381 4.66667 11.5003 5.78595 11.5003 7.16667C11.5003 8.54738 10.381 9.66667 9.00033 9.66667C7.61961 9.66667 6.50033 8.54738 6.50033 7.16667C6.50033 5.78595 7.61961 4.66667 9.00033 4.66667ZM4.41699 0.5C5.7977 0.5 6.91699 1.61929 6.91699 3C6.91699 4.38071 5.7977 5.5 4.41699 5.5C3.03628 5.5 1.91699 4.38071 1.91699 3C1.91699 1.61929 3.03628 0.5 4.41699 0.5ZM13.5837 0.5C14.9644 0.5 16.0837 1.61929 16.0837 3C16.0837 4.38071 14.9644 5.5 13.5837 5.5C12.2029 5.5 11.0837 4.38071 11.0837 3C11.0837 1.61929 12.2029 0.5 13.5837 0.5Z" fill="white"/>
</svg>